<?xml version="1.0" encoding="UTF-8" standalone="no"?>
<!DOCTYPE svg PUBLIC "-//W3C//DTD SVG 1.1//EN"
 "http://www.w3.org/Graphics/SVG/1.1/DTD/svg11.dtd">
<!-- Generated by graphviz version 2.50.0 (20211204.2007)
 -->
<!-- Pages: 1 -->
<svg width="256pt" height="404pt"
 viewBox="0.00 0.00 255.97 404.00" xmlns="http://www.w3.org/2000/svg" xmlns:xlink="http://www.w3.org/1999/xlink">
<g id="graph0" class="graph" transform="scale(1 1) rotate(0) translate(4 400)">
<polygon fill="white" stroke="transparent" points="-4,4 -4,-400 251.97,-400 251.97,4 -4,4"/>
<!-- 1 -->
<g id="node1" class="node">
<title>1</title>
<ellipse fill="none" stroke="black" cx="65.97" cy="-378" rx="27" ry="18"/>
<text text-anchor="middle" x="65.97" y="-374.3" font-family="Times,serif" font-size="14.00">1</text>
</g>
<!-- 2 -->
<g id="node2" class="node">
<title>2</title>
<ellipse fill="none" stroke="black" cx="120.97" cy="-306" rx="27" ry="18"/>
<text text-anchor="middle" x="120.97" y="-302.3" font-family="Times,serif" font-size="14.00">2</text>
</g>
<!-- 1&#45;&#45;2 -->
<g id="edge1" class="edge">
<title>1&#45;&#45;2</title>
<path fill="none" stroke="black" d="M77.9,-361.81C87.13,-350.07 99.84,-333.89 109.06,-322.16"/>
</g>
<!-- 5 -->
<g id="node3" class="node">
<title>5</title>
<ellipse fill="none" stroke="black" cx="38.97" cy="-90" rx="27" ry="18"/>
<text text-anchor="middle" x="38.97" y="-86.3" font-family="Times,serif" font-size="14.00">5</text>
</g>
<!-- 1&#45;&#45;5 -->
<g id="edge2" class="edge">
<title>1&#45;&#45;5</title>
<path fill="none" stroke="black" d="M58.78,-360.56C44.67,-327.27 13.76,-249.18 2.97,-180 0.5,-164.19 -1.73,-159.29 2.97,-144 7.35,-129.75 17.01,-115.9 25.22,-105.93"/>
</g>
<!-- 6 -->
<g id="node4" class="node">
<title>6</title>
<ellipse fill="none" stroke="black" cx="137.97" cy="-234" rx="27" ry="18"/>
<text text-anchor="middle" x="137.97" y="-230.3" font-family="Times,serif" font-size="14.00">6</text>
</g>
<!-- 1&#45;&#45;6 -->
<g id="edge3" class="edge">
<title>1&#45;&#45;6</title>
<path fill="none" stroke="black" d="M66.74,-359.94C68.22,-341.26 72.52,-310.9 84.97,-288 93.67,-271.99 108.7,-257.64 120.54,-247.93"/>
</g>
<!-- 3 -->
<g id="node5" class="node">
<title>3</title>
<ellipse fill="none" stroke="black" cx="65.97" cy="-234" rx="27" ry="18"/>
<text text-anchor="middle" x="65.97" y="-230.3" font-family="Times,serif" font-size="14.00">3</text>
</g>
<!-- 2&#45;&#45;3 -->
<g id="edge4" class="edge">
<title>2&#45;&#45;3</title>
<path fill="none" stroke="black" d="M109.03,-289.81C99.81,-278.07 87.1,-261.89 77.88,-250.16"/>
</g>
<!-- 7 -->
<g id="node6" class="node">
<title>7</title>
<ellipse fill="none" stroke="black" cx="220.97" cy="-162" rx="27" ry="18"/>
<text text-anchor="middle" x="220.97" y="-158.3" font-family="Times,serif" font-size="14.00">7</text>
</g>
<!-- 2&#45;&#45;7 -->
<g id="edge5" class="edge">
<title>2&#45;&#45;7</title>
<path fill="none" stroke="black" d="M137.09,-291.25C148.32,-281.14 163.15,-266.66 173.97,-252 191.19,-228.66 205.84,-198.17 214.01,-179.61"/>
</g>
<!-- 10 -->
<g id="node10" class="node">
<title>10</title>
<ellipse fill="none" stroke="black" cx="110.97" cy="-18" rx="27" ry="18"/>
<text text-anchor="middle" x="110.97" y="-14.3" font-family="Times,serif" font-size="14.00">10</text>
</g>
<!-- 5&#45;&#45;10 -->
<g id="edge10" class="edge">
<title>5&#45;&#45;10</title>
<path fill="none" stroke="black" d="M53.54,-74.83C65.95,-62.77 83.7,-45.51 96.17,-33.38"/>
</g>
<!-- 8 -->
<g id="node8" class="node">
<title>8</title>
<ellipse fill="none" stroke="black" cx="110.97" cy="-162" rx="27" ry="18"/>
<text text-anchor="middle" x="110.97" y="-158.3" font-family="Times,serif" font-size="14.00">8</text>
</g>
<!-- 6&#45;&#45;8 -->
<g id="edge11" class="edge">
<title>6&#45;&#45;8</title>
<path fill="none" stroke="black" d="M131.57,-216.41C127.33,-205.41 121.78,-191.03 117.51,-179.96"/>
</g>
<!-- 9 -->
<g id="node9" class="node">
<title>9</title>
<ellipse fill="none" stroke="black" cx="165.97" cy="-90" rx="27" ry="18"/>
<text text-anchor="middle" x="165.97" y="-86.3" font-family="Times,serif" font-size="14.00">9</text>
</g>
<!-- 6&#45;&#45;9 -->
<g id="edge12" class="edge">
<title>6&#45;&#45;9</title>
<path fill="none" stroke="black" d="M141.35,-215.87C146.73,-188.58 157.19,-135.52 162.58,-108.19"/>
</g>
<!-- 4 -->
<g id="node7" class="node">
<title>4</title>
<ellipse fill="none" stroke="black" cx="38.97" cy="-162" rx="27" ry="18"/>
<text text-anchor="middle" x="38.97" y="-158.3" font-family="Times,serif" font-size="14.00">4</text>
</g>
<!-- 3&#45;&#45;4 -->
<g id="edge6" class="edge">
<title>3&#45;&#45;4</title>
<path fill="none" stroke="black" d="M59.57,-216.41C55.33,-205.41 49.78,-191.03 45.51,-179.96"/>
</g>
<!-- 3&#45;&#45;8 -->
<g id="edge7" class="edge">
<title>3&#45;&#45;8</title>
<path fill="none" stroke="black" d="M76.18,-217.12C83.54,-205.66 93.44,-190.26 100.8,-178.82"/>
</g>
<!-- 7&#45;&#45;9 -->
<g id="edge13" class="edge">
<title>7&#45;&#45;9</title>
<path fill="none" stroke="black" d="M209.03,-145.81C199.81,-134.07 187.1,-117.89 177.88,-106.16"/>
</g>
<!-- 7&#45;&#45;10 -->
<g id="edge14" class="edge">
<title>7&#45;&#45;10</title>
<path fill="none" stroke="black" d="M221.29,-143.96C220.82,-124.73 217.45,-93.37 201.97,-72 185.45,-49.2 155.88,-34.65 134.93,-26.68"/>
</g>
<!-- 4&#45;&#45;5 -->
<g id="edge8" class="edge">
<title>4&#45;&#45;5</title>
<path fill="none" stroke="black" d="M38.97,-143.7C38.97,-132.85 38.97,-118.92 38.97,-108.1"/>
</g>
<!-- 4&#45;&#45;9 -->
<g id="edge9" class="edge">
<title>4&#45;&#45;9</title>
<path fill="none" stroke="black" d="M59.09,-149.91C82.73,-136.88 121.74,-115.38 145.52,-102.27"/>
</g>
<!-- 8&#45;&#45;10 -->
<g id="edge15" class="edge">
<title>8&#45;&#45;10</title>
<path fill="none" stroke="black" d="M110.97,-143.87C110.97,-116.58 110.97,-63.52 110.97,-36.19"/>
</g>
</g>
</svg>
